{"title":"The Florida Project 2017 DVDScr AAC x264 - EiE","magnet":"magnet:?xt=urn:btih:713418badf3d1150d9ce3bf8e7b9b20207335a2e&dn=The+Florida+Project+2017+DVDScr+AAC+x264+-+EiE&tr=udp%3A%2F%2Ftracker.leechers-paradise.org%3A6969&tr=udp%3A%2F%2Fzer0day.ch%3A1337&tr=udp%3A%2F%2Fopen.demonii.com%3A1337&tr=udp%3A%2F%2Ftracker.coppersurfer.tk%3A6969&tr=udp%3A%2F%2Fexodus.desync.com%3A6969","uploader":"samcode4u","categoryP":"video","categoryS":"hd___movies","size":"734055297","seeders":"13","leechers":"6","description":"The Florida Project 2017 DVDScr AAC x264 - EiE\r\n <a href=\"\nhttps://www.imdb.com/title/tt5649144/\" rel=\"nofollow\" target=\"_NEW\">\nhttps://www.imdb.com/title/tt5649144/</a>\r\n\r\n\r\nScreenshots:\r\n <a href=\"\nhttps://lensdump.com/i/Hs3OM\" rel=\"nofollow\" target=\"_NEW\">\nhttps://lensdump.com/i/Hs3OM</a>\r\n <a href=\"\nhttps://lensdump.com/i/HssEA\" rel=\"nofollow\" target=\"_NEW\">\nhttps://lensdump.com/i/HssEA</a>\r\n <a href=\"\nhttps://lensdump.com/i/Hs4cQ\" rel=\"nofollow\" target=\"_NEW\">\nhttps://lensdump.com/i/Hs4cQ</a>\r\n <a href=\"\nhttps://lensdump.com/i/HspZa\" rel=\"nofollow\" target=\"_NEW\">\nhttps://lensdump.com/i/HspZa</a>\r\n\r\n\r\nVideo\r\nID                                       : 1\r\nFormat                                   : AVC\r\nFormat/Info                              : Advanced Video Codec\r\nFormat settings                          : CABAC / 4 Ref Frames\r\nFormat settings, CABAC                   : Yes\r\nFormat settings, RefFrames               : 4 frames\r\nCodec ID                                 : avc1\r\nCodec ID/Info                            : Advanced Video Coding\r\nDuration                                 : 1 h 51 min\r\nBit rate                                 : 797 kb/s\r\nMaximum bit rate                         : 4 105 kb/s\r\nWidth                                    : 720 pixels\r\nHeight                                   : 304 pixels\r\nDisplay aspect ratio                     : 2.35:1\r\nFrame rate mode                          : Constant\r\nFrame rate                               : 30.000 FPS\r\nColor space                              : YUV\r\nChroma subsampling                       : 4:2:0\r\nBit depth                                : 8 bits\r\nScan type                                : Progressive\r\nBits/(Pixel*Frame)                       : 0.121\r\nStream size                              : 634 MiB (91%)\r\n\r\nAudio\r\nID                                       : 2\r\nFormat                                   : AAC\r\nFormat/Info                              : Advanced Audio Codec\r\nFormat profile                           : LC\r\nCodec ID                                 : mp4a-40-2\r\nDuration                                 : 1 h 51 min\r\nBit rate mode                            : Variable\r\nBit rate                                 : 77.8 kb/s\r\nMaximum bit rate                         : 120 kb/s\r\nChannel(s)                               : 2 channels\r\nChannel positions                        : Front: L R\r\nSampling rate                            : 48.0 kHz\r\nFrame rate                               : 46.875 FPS (1024 SPF)\r\nCompression mode                         : Lossy\r\nStream size                              : 62.0 MiB (9%)\r\nLanguage                                 : English","last_updated":"2017-12-30T12:03:44.447Z","parsed":{"xt":"urn:btih:713418badf3d1150d9ce3bf8e7b9b20207335a2e","dn":"The Florida Project 2017 DVDScr AAC x264 - EiE","tr":["udp://exodus.desync.com:6969","udp://open.demonii.com:1337","udp://tracker.coppersurfer.tk:6969","udp://tracker.leechers-paradise.org:6969","udp://zer0day.ch:1337"],"infoHash":"713418badf3d1150d9ce3bf8e7b9b20207335a2e","infoHashBuffer":{"type":"Buffer","data":[113,52,24,186,223,61,17,80,217,206,59,248,231,185,178,2,7,51,90,46]},"name":"The Florida Project 2017 DVDScr AAC x264 - EiE","announce":["udp://exodus.desync.com:6969","udp://open.demonii.com:1337","udp://tracker.coppersurfer.tk:6969","udp://tracker.leechers-paradise.org:6969","udp://zer0day.ch:1337"],"urlList":[]}}